<svg xmlns="http://www.w3.org/2000/svg" xmlns:xlink="http://www.w3.org/1999/xlink" viewBox="0 0 709.33 450.96"><defs><clipPath id="a" transform="translate(-24.75 -24.89)"><rect x="102.06" y="68.33" width="67.42" height="57.67" rx="2.42" fill="none"/></clipPath><clipPath id="b" transform="translate(-24.75 -24.89)"><rect x="204.12" y="113.41" width="36.1" height="47.99" rx="2.23" fill="none"/></clipPath><clipPath id="c" transform="translate(-24.75 -24.89)"><circle cx="309.29" cy="135.74" r="24.59" fill="none"/></clipPath><clipPath id="d" transform="translate(-24.75 -24.89)"><rect x="417.97" y="65.19" width="213.42" height="136.79" fill="none"/></clipPath><clipPath id="e" transform="translate(-24.75 -24.89)"><path d="M453.33,248.31s-15,1.31-20.67,14.77a53.71,53.71,0,0,0-3.5,25.75s18.84-8.91,24-20.24S453.33,248.31,453.33,248.31Z" fill="none"/></clipPath></defs><path d="M67.36,195.55c5.56,50.31-69.08,96.23-11.08,166.79S92.6,493,208,450.7s179.64-12.31,226,7.69,169.12,34.34,185.75-24.33,36.5-93.6,71.07-106.64,44.43-77.06,0-134S645.9-.36,526.74,29.64,416.86,70,349,69.13,243.56,39.39,170.48,36.39,55.32,86.72,67.36,195.55Z" transform="translate(-24.75 -24.89)" fill="#ffe3e5"/><path d="M51.5,235.84s-33,47.83-25,81.74S59,366.34,69,391.92" transform="translate(-24.75 -24.89)" fill="none" stroke="#ffe3e5" stroke-linecap="round" stroke-linejoin="round"/><path d="M285.48,51.5s47.23,18,89.38,10.25,99.89-31,139.51-36.36" transform="translate(-24.75 -24.89)" fill="none" stroke="#ffe3e5" stroke-linecap="round" stroke-linejoin="round"/><path d="M686.5,169.65S699,194.1,716,215.3s36,89.28-18.26,117" transform="translate(-24.75 -24.89)" fill="none" stroke="#ffe3e5" stroke-linecap="round" stroke-linejoin="round"/><path d="M261.35,333.65s9.28-5.23,8.4-7.82-13.36-11.2-14.93-12.2-2.19,1.79-.57,5.7,3.75,6.33,3.25,8.43-2.25,5-1.62,5.89S257.64,336,261.35,333.65Z" transform="translate(-24.75 -24.89)" fill="#ff5778"/><path d="M227.17,185.33s7.66,8.21,13.66,8a13,13,0,0,1-13.66,4.32Z" transform="translate(-24.75 -24.89)" fill="#ce6f2e"/><path d="M134.67,414s22,22.67,27.33,28,5.33,10,5.33,10" transform="translate(-24.75 -24.89)" fill="none" stroke="#000" stroke-miterlimit="10"/><path d="M180.83,133.25a3,3,0,0,1-3,3H100.25c-1.66,0-5-2.34-5-4V63.75c0-1.66,2.35-2,4-2h77.59c1.66,0,4,4.34,4,6Z" transform="translate(-24.75 -24.89)" fill="#ff5874"/><rect x="69.23" y="36.53" width="83.59" height="71.5" rx="3" fill="#fea19c"/><rect x="77.31" y="43.44" width="67.42" height="57.67" rx="2.42" fill="#ffcfcf"/><g clip-path="url(#a)"><line x1="57.98" y1="108.03" x2="139.32" y2="24.19" fill="none" stroke="#fff6ec" stroke-linecap="round" stroke-linejoin="round" stroke-width="9"/><line x1="51.28" y1="101.11" x2="132.62" y2="17.28" fill="none" stroke="#fff6ec" stroke-linecap="round" stroke-linejoin="round" stroke-width="5"/></g><path d="M104.79,125.75V72.92a2.42,2.42,0,0,1,2.42-2.42h62.24a2.4,2.4,0,0,0-2.39-2.17H104.48a2.43,2.43,0,0,0-2.42,2.42v52.83a2.42,2.42,0,0,0,2.42,2.42h.33A2.11,2.11,0,0,1,104.79,125.75Z" transform="translate(-24.75 -24.89)" fill="#ff5874"/><path d="M249.7,170a3,3,0,0,1-3,3H204.18c-1.66,0-5-2.35-5-4v-60.5a3,3,0,0,1,3-3H244.7c1.66,0,5,4.34,5,6Z" transform="translate(-24.75 -24.89)" fill="#ff5874"/><rect x="173.16" y="80.27" width="48.53" height="64.5" rx="3" fill="#fd9e9a"/><rect x="179.37" y="88.52" width="36.1" height="47.99" rx="2.23" fill="#ffcfcf"/><g clip-path="url(#b)"><line x1="153.94" y1="150.23" x2="235.28" y2="66.39" fill="none" stroke="#fff6ec" stroke-linecap="round" stroke-linejoin="round" stroke-width="9"/><line x1="147.24" y1="143.31" x2="228.58" y2="59.48" fill="none" stroke="#fff6ec" stroke-linecap="round" stroke-linejoin="round" stroke-width="5"/></g><path d="M206.85,161.33V117.81a2.23,2.23,0,0,1,2.23-2.23h31.14a2.24,2.24,0,0,0-2.23-2.17H206.35a2.23,2.23,0,0,0-2.23,2.23v43.53a2.23,2.23,0,0,0,2.23,2.23h.5Z" transform="translate(-24.75 -24.89)" fill="#ff5874"/><circle cx="311.73" cy="138.24" r="32.42" transform="translate(79.92 384.29) rotate(-76.53)" fill="#ff5874"/><circle cx="284.54" cy="110.85" r="31.59" fill="#fea19c"/><circle cx="284.54" cy="110.85" r="24.59" fill="#ffcfcf"/><g clip-path="url(#c)"><line x1="243.16" y1="150.26" x2="324.49" y2="66.43" fill="none" stroke="#fff6ec" stroke-linecap="round" stroke-linejoin="round" stroke-width="9"/><line x1="236.46" y1="143.35" x2="317.79" y2="59.52" fill="none" stroke="#fff6ec" stroke-linecap="round" stroke-linejoin="round" stroke-width="5"/></g><path d="M287.43,137.9a24.59,24.59,0,0,1,38.48-20.28,24.58,24.58,0,1,0-30.5,38.4A24.5,24.5,0,0,1,287.43,137.9Z" transform="translate(-24.75 -24.89)" fill="#ff5874"/><rect x="393.22" y="40.3" width="213.42" height="136.79" fill="#ffcfcf"/><g clip-path="url(#d)"><line x1="367.54" y1="115.55" x2="488.92" y2="29.39" fill="none" stroke="#fff6ec" stroke-linecap="round" stroke-linejoin="round" stroke-width="9"/><line x1="359.78" y1="149.32" x2="533.06" y2="26.31" fill="none" stroke="#fff6ec" stroke-linecap="round" stroke-linejoin="round" stroke-width="18"/></g><path d="M411.43,60.6v146h226.5V60.6ZM628,196.82H421.38V70.36H628Z" transform="translate(-24.75 -24.89)" fill="#fea19c"/><line x1="499.93" y1="35.71" x2="499.93" y2="181.03" fill="none" stroke="#fea19c" stroke-miterlimit="10" stroke-width="10"/><line x1="613.18" y1="108.37" x2="386.68" y2="108.37" fill="none" stroke="#fea19c" stroke-miterlimit="10" stroke-width="10"/><ellipse cx="345.48" cy="387.74" rx="231.92" ry="34.77" fill="#fad0d1"/><ellipse cx="345.48" cy="382.68" rx="160.87" ry="19.06" fill="#fd9e9a"/><ellipse cx="345.48" cy="380.08" rx="105.95" ry="9.95" fill="#fad0d1"/><path d="M313.42,314.94s-25.83-10.7-33.22-18.27,5.54-3.62,5.54-3.62-22.88-23.29-24-28.84,12.18,4.23,12.18,4.23-15.32-22.84-10.33-29.87,21,20.86,21,20.86-1.54-9.1,2.92-9.45,9.82,24,9.82,24,.92-7.38,5.72-6.65S309,296.31,313.42,314.94Z" transform="translate(-24.75 -24.89)" fill="#fad0d1"/><path d="M270.24,248.86s19,39.33,43.18,66.08" transform="translate(-24.75 -24.89)" fill="none" stroke="#fd9e9a" stroke-linecap="round" stroke-linejoin="round"/><path d="M268.21,270s11.17,11.34,24.5,17.83" transform="translate(-24.75 -24.89)" fill="none" stroke="#fd9e9a" stroke-linecap="round" stroke-linejoin="round"/><path d="M288.32,256.65a95.39,95.39,0,0,0,.58,25.25" transform="translate(-24.75 -24.89)" fill="none" stroke="#fd9e9a" stroke-linecap="round" stroke-linejoin="round"/><path d="M287.55,297.6a132.22,132.22,0,0,0,18,8" transform="translate(-24.75 -24.89)" fill="none" stroke="#fd9e9a" stroke-linecap="round" stroke-linejoin="round"/><path d="M301.28,274.83a143,143,0,0,0,1.88,27.69" transform="translate(-24.75 -24.89)" fill="none" stroke="#fd9e9a" stroke-linecap="round" stroke-linejoin="round"/><path d="M331.11,320.07s-2.13-25.47,1.78-37.52S339,284.9,339,284.9s2.56-24.29,8.22-31.47,4,11.54,4,11.54,7.8-22.55,19.81-27.85-.75,27.57-8.32,38.5c0,0,11.29-11.22,15.06-9.53s-18,22.53-18,22.53,9.69-5.76,13-.35S331.11,320.07,331.11,320.07Z" transform="translate(-24.75 -24.89)" fill="#fad0d1"/><path d="M363.55,255.65a340,340,0,0,0-32.5,63.66" transform="translate(-24.75 -24.89)" fill="none" stroke="#fd9e9a" stroke-linecap="round" stroke-linejoin="round"/><path d="M347.64,261.28a248.15,248.15,0,0,0-3.55,28.41" transform="translate(-24.75 -24.89)" fill="none" stroke="#fd9e9a" stroke-linecap="round" stroke-linejoin="round"/><path d="M364.21,276.72a79.64,79.64,0,0,0-22.86,18.57" transform="translate(-24.75 -24.89)" fill="none" stroke="#fd9e9a" stroke-linecap="round" stroke-linejoin="round"/><path d="M335.79,285.78s-.8,11.34-.54,23.05" transform="translate(-24.75 -24.89)" fill="none" stroke="#fd9e9a" stroke-linecap="round" stroke-linejoin="round"/><path d="M359.71,294.18s-15.36,8.95-26.47,19.52" transform="translate(-24.75 -24.89)" fill="none" stroke="#fd9e9a" stroke-linecap="round" stroke-linejoin="round"/><path d="M323.39,313.28s-18.45-24.17-25.65-35.43,7.75-2.39,7.75-2.39-14.76-23.38-19.19-38.26,11.81-2.57,11.81-2.57-5.9-27.27,2.77-31.51,17,36.57,17,36.57,2.19-11.66,6.44-8.71,5.16,39.31,4.79,39.86,4.62-10.76,7.76-8.42S336.5,287.26,323.39,313.28Z" transform="translate(-24.75 -24.89)" fill="#fd9e9a"/><path d="M304.57,221.38s18.09,49.09,18.82,91.9" transform="translate(-24.75 -24.89)" fill="none" stroke="#fad0d1" stroke-linecap="round" stroke-miterlimit="10"/><path d="M295.35,242.18s10.42,7.68,22.74,27.77" transform="translate(-24.75 -24.89)" fill="none" stroke="#fad0d1" stroke-linecap="round" stroke-miterlimit="10"/><path d="M322,239.69a311.9,311.9,0,0,1-2.18,39.49" transform="translate(-24.75 -24.89)" fill="none" stroke="#fad0d1" stroke-linecap="round" stroke-miterlimit="10"/><path d="M304.57,280.07a77,77,0,0,1,17.95,18.45" transform="translate(-24.75 -24.89)" fill="none" stroke="#fad0d1" stroke-linecap="round" stroke-miterlimit="10"/><path d="M334.1,272.78s-4.06,15.54-10.71,28.67" transform="translate(-24.75 -24.89)" fill="none" stroke="#fad0d1" stroke-linecap="round" stroke-miterlimit="10"/><path d="M354,380.58H290.2a4.47,4.47,0,0,1-4.35-3.47L270.44,310a4.45,4.45,0,0,1,4.35-5.46H369.2a4.47,4.47,0,0,1,4.36,5.45L358.34,377.1A4.47,4.47,0,0,1,354,380.58Z" transform="translate(-24.75 -24.89)" fill="#ff5874"/><path d="M286.72,352.92l4.4,19.15a3.82,3.82,0,0,0,3.72,3h54.48a3.81,3.81,0,0,0,3.72-3l11.72-51.69C341.19,350.54,305.16,353.6,286.72,352.92Z" transform="translate(-24.75 -24.89)" fill="#fd9e9a"/><path d="M536.13,272.67c-3.71,3.75-5.63,8.16-5,9.83s25.84,55.17,41.67,55.67,30.42-50.67,28.79-62.34S591,253.44,584,259.47s-15.35,24.86-16.85,30.36c0,0-16.5-22.28-18.66-23.14S541.66,267.06,536.13,272.67Z" transform="translate(-24.75 -24.89)" fill="#fff6ec"/><path d="M532.55,285.46s5.11,1.29,11.45-4.25,7.17-11.21,5.75-13.46" transform="translate(-24.75 -24.89)" fill="none" stroke="#ff9640" stroke-linecap="round" stroke-linejoin="round"/><path d="M567.16,289.83s8.67,7.68,12,22.68" transform="translate(-24.75 -24.89)" fill="none" stroke="#ff9640" stroke-linecap="round" stroke-linejoin="round"/><path d="M534,280s-.45,1.5,1.76,5.41,23.37,39.4,29.71,44.4,15.56-1.52,20-10.26,15.65-46.12,15.65-46.12" transform="translate(-24.75 -24.89)" fill="none" stroke="#ff9640" stroke-linecap="round" stroke-linejoin="round"/><path d="M524.68,270.39s7,9.26,9.35,9.63,5.92-1.2,8.33-3.42,5.92-7.5,5.09-10.65-3.15-5.09-5.18-9.26-3.61-8-4.63-8.33-3.15,1.11-1.85,7c0,0-3.13-4.23-4.87-3.63S524.68,270.39,524.68,270.39Z" transform="translate(-24.75 -24.89)" fill="#b25275"/><path d="M453.36,249c3.61.75,8.08.15,8.87-4.1.74-4-4.2-5.25-5.47-8.35-2-4.84,7-4.26,9.19-6,3.09-2.52.91-5.94-1.17-8.2-2.4-2.61-.42-4.6,1.68-6.66,1.69-1.64,1.78-3.6,1.87-5.85.11-2.43-.06-5.42-1.19-7.62-.81-1.58-3-3.47-.21-5.08a38.55,38.55,0,0,1,3.66-1.43c5.39-2.45,2.14-7.66.66-11.4-1-2.48-1.3-5.5,1.63-6.51,1.67-.58,3.42-.71,5-1.51,4.64-2.3,1.16-7.35,1.16-11,0-2.74,3.39-3.32,5.1-4.75,1.35-1.13,1.26-3.79,1.46-5.35.08-.63-.92-.63-1,0-.26,2-.15,4.15-2,5.22-1.51.85-3.55,1.63-4.19,3.41-1.46,4,3.85,9.56-1.65,11.87-2.68,1.13-6.55.72-7.15,4.35-.86,5.21,7.31,12.17-.36,15.12-1.63.63-3.47,1-4.41,2.59-1.29,2.21,1.31,4.09,1.89,6,.81,2.72,1.32,7.53-.09,10.13-1.1,2-3.43,3-4.07,5.38-1,3.88,6.9,6.2,3,10.26-2.53,2.63-7.39.6-9.48,4.2-1.55,2.66.82,4.94,2.66,6.53s3.26,3.31,2.07,5.86-4.95,2.34-7.17,1.88c-.63-.13-.9.83-.27,1Z" transform="translate(-24.75 -24.89)" fill="#fff"/><path d="M435.87,258.9a15.29,15.29,0,0,0-8,5.29c-3.12,4.19-3.75,10.31-3.37,10.44s7.5-3.25,7.5-3.25Z" transform="translate(-24.75 -24.89)" fill="#ff9640"/><path d="M451.75,268.57l-6.25,8.1s4.5,6.46,5.5,6S451.75,268.57,451.75,268.57Z" transform="translate(-24.75 -24.89)" fill="#ff9640"/><path d="M428.86,284.63s-4.49,5.87-9.74,8.25c0,0,5.63,6,11.75,5.87,0,0-.15-6.86,2.11-11.93Z" transform="translate(-24.75 -24.89)" fill="#ff9640"/><path d="M453.33,248.31s-15,1.31-20.67,14.77a53.71,53.71,0,0,0-3.5,25.75s18.84-8.91,24-20.24S453.33,248.31,453.33,248.31Z" transform="translate(-24.75 -24.89)" fill="#02ccc0"/><path d="M454.2,266a23.24,23.24,0,0,0-.87-17.65s-9.93.87-16.68,8.44C439.16,260.35,445.21,267.21,454.2,266Z" transform="translate(-24.75 -24.89)" fill="#ff9640"/><path d="M446.62,256.85a1.35,1.35,0,1,1-1.34-1.35A1.34,1.34,0,0,1,446.62,256.85Z" transform="translate(-24.75 -24.89)" fill="#02ccc0"/><g clip-path="url(#e)"><path d="M434.07,259c-.77,1.18-1.59,3.15-.18,4.28s2.77.74,4.37.45l-.62-.61c-.83,3.21,1.24,6.46,4.61,4.44l-.68-.69c-1,2.14.45,3.75,2.3,4.81,2.34,1.35,4.36-.69,5.43-2.55l-.93-.25c0,3.4,5.26,6,6.36,1.88a.5.5,0,0,0-1-.27c-.82,3.11-4.38.55-4.4-1.61a.5.5,0,0,0-.93-.26c-.68,1.18-1.36,2.26-2.93,2.45s-3.9-2-3.08-3.69c.21-.43-.23-1-.68-.69-2.61,1.57-3.69-1.22-3.15-3.31a.5.5,0,0,0-.61-.61c-.54.1-1.09.19-1.64.27-1.94.26-2.31-2.16-1.42-3.54.35-.54-.52-1-.86-.5Z" transform="translate(-24.75 -24.89)" fill="#42e5d5"/><path d="M429.94,265.62c-2.24,3.64,2.82,5.35,5.69,4.74l-.61-.62c-1,2.86,1.08,6.74,4.36,5.07l-.74-.57c-1.16,3.18,2.31,4.43,4.74,3.07l-.76-.43c0,3.84,5.22,3.87,6,.38.14-.63-.82-.9-1-.27-.51,2.33-4,2.67-4-.11a.51.51,0,0,0-.75-.44c-1.53.86-4.07.27-3.27-1.93.17-.44-.37-.75-.73-.57-2.79,1.43-3.45-2.31-2.89-3.93.13-.38-.27-.69-.62-.62-1.9.41-6.28-.47-4.56-3.26a.5.5,0,0,0-.86-.51Z" transform="translate(-24.75 -24.89)" fill="#42e5d5"/><path d="M426.89,273.74c-1.34,3.79,3.61,5.44,6.49,4.24l-.63-.48c.12,2.42,1.82,6,4.35,3.35l-.83-.48c-.56,2.72,1.75,4.14,4,2.44l-.73-.3a3.25,3.25,0,0,0,3.76,2.7c1.34-.14,2.36-1.14,1.77-2.46-.26-.59-1.12-.08-.86.5.41.92-1.23,1-1.65,1a2.22,2.22,0,0,1-2.06-2,.5.5,0,0,0-.73-.3c-.86.89-1.7.46-2.52-1.31a.5.5,0,0,0-.84-.48c-1.91,2-2.58-1.49-2.64-2.65,0-.29-.32-.61-.64-.48-2.07.86-6.36.11-5.26-3,.22-.61-.75-.87-1-.27Z" transform="translate(-24.75 -24.89)" fill="#42e5d5"/><path d="M426.14,280c-.69,3.75,3,5.26,6.12,4.12l-.62-.62c-.46,2.17.54,3.81,2.87,3.24l-.64-.48c-.24,3.17,4.11,4.08,5.81,1.75.38-.52-.49-1-.86-.5-1.18,1.6-4.11.84-3.95-1.25a.5.5,0,0,0-.63-.48l-1.64-2c.08-.34-.23-.76-.61-.62-2.25.82-5.45.21-4.89-2.88.12-.63-.84-.9-1-.27Z" transform="translate(-24.75 -24.89)" fill="#42e5d5"/></g><line x1="459.5" y1="128.61" x2="519.75" y2="245.5" fill="none" stroke="#020264" stroke-linecap="round" stroke-linejoin="round" stroke-width="2"/><path d="M533.47,254.07c-.8-1.16-4-5.06-5.18.59a3.61,3.61,0,0,0-3.15,4.81s-3.24.56-2.5,4.26a3.47,3.47,0,0,0-1.29,4.63c1.39,3.14,5.06,5.18,6.37,5.09s2-1.85,1.59-3.06a3.15,3.15,0,0,0,3.24-3.7s3.24.21,3.24-3.55c0,0,2.88.11,3.24-2.47C539.27,258.9,536,257.76,533.47,254.07Z" transform="translate(-24.75 -24.89)" fill="#d17894"/><path d="M528.29,254.66s1.11,4.74,7.5,8.48" transform="translate(-24.75 -24.89)" fill="none" stroke="#913a5d" stroke-linecap="round" stroke-linejoin="round"/><path d="M525.14,259.47a17.28,17.28,0,0,0,7.41,7.22" transform="translate(-24.75 -24.89)" fill="none" stroke="#913a5d" stroke-linecap="round" stroke-linejoin="round"/><path d="M522.64,263.73s2.6,5.28,6.67,6.66" transform="translate(-24.75 -24.89)" fill="none" stroke="#913a5d" stroke-linecap="round" stroke-linejoin="round"/><path d="M613.75,371.1a31.36,31.36,0,0,1-4.1,22.17c-6.84,11-15.89,19-45.7,19.5s-79.8-5.67-89-15.83c-7.19-8-3.5-26.95,9-33.64s35.5-10.36,61.17-9.2,61,10.87,61,10.87Z" transform="translate(-24.75 -24.89)" fill="#2e6acc"/><path d="M613.75,378.54s-84.24-2.13-91.75-1-7.48-4.14-8.49-3.94,3,5.95,0,6.95-5-1.5-5.49,0,3.52,3.24,5.51,4.74,24.24-1.1,42.74,4.32,45.06,13.6,45.06,13.6" transform="translate(-24.75 -24.89)" fill="none" stroke="#ff9640" stroke-linecap="round" stroke-linejoin="round" stroke-dasharray="5"/><path d="M617.62,173c2.36,0,24.63,2.76,26.25,5.64s.63,19.11,3.5,27.49,15.88,16,15.88,16a97.91,97.91,0,0,1-45.13,17.46c-26.87,3.12-42.75-3.88-53.87-10,0,0,9.5-5.75,11.5-17.13s1.5-27,8.5-33.62S601.16,173.19,617.62,173Z" transform="translate(-24.75 -24.89)" fill="#c64262"/><path d="M581.41,182.73s-5.48,4.7-7.29,23.39c-1.4,14.54-11.62,21.13-11.62,21.13" transform="translate(-24.75 -24.89)" fill="none" stroke="#c64262" stroke-linecap="round" stroke-linejoin="round"/><path d="M632.37,223.62a71.42,71.42,0,0,0,0,28.51s-21,15.25-26.87,1.37a56.07,56.07,0,0,0,0-17.83Z" transform="translate(-24.75 -24.89)" fill="#d17894"/><path d="M605.5,235.67a62,62,0,0,1,.61,6.33,8.45,8.45,0,0,0,5.3,3.5c4.15.58,15-7.29,19.92-15.23a57.2,57.2,0,0,1,1-6.65Z" transform="translate(-24.75 -24.89)" fill="#b25275"/><path d="M610.16,173c-16.82.49-29,9.5-29.16,30.33s10.75,33.75,30.91,32.42,25.59-19.25,25.42-33.58S627.33,172.5,610.16,173Z" transform="translate(-24.75 -24.89)" fill="#d17894"/><path d="M639.25,202s-5.34,2.32-17.09,3a41.76,41.76,0,0,1-4.75-20.53,48.29,48.29,0,0,0-13.33,16A111.08,111.08,0,0,1,569.41,197s5.84-17.75,16.92-25.67,34.83-7.33,44.33-1.91S639.25,202,639.25,202Z" transform="translate(-24.75 -24.89)" fill="#ff5778"/><path d="M603.75,165.71s-14.1,2.3-20.61,34" transform="translate(-24.75 -24.89)" fill="none" stroke="#c64262" stroke-linecap="round" stroke-linejoin="round"/><path d="M589.49,200.53a58.13,58.13,0,0,1,3.18-25.71" transform="translate(-24.75 -24.89)" fill="none" stroke="#c64262" stroke-linecap="round" stroke-linejoin="round"/><path d="M598,198.5s1.5,6.5,0,10.88c0,0-4.75,1.5-5,3s5,5.57,5,5.57" transform="translate(-24.75 -24.89)" fill="none" stroke="#913a5d" stroke-linecap="round" stroke-linejoin="round"/><ellipse cx="566.49" cy="180.14" rx="1.75" ry="2.25" fill="#00005c"/><ellipse cx="584.91" cy="177.89" rx="1.75" ry="2.25" fill="#00005c"/><path d="M596.83,223.12s3.38,2.46,7.09,1.08a7.73,7.73,0,0,0,4.74-6.08" transform="translate(-24.75 -24.89)" fill="none" stroke="#913a5d" stroke-linecap="round" stroke-linejoin="round"/><ellipse cx="595.07" cy="186.4" rx="9.04" ry="7.63" fill="#c4608d"/><path d="M586.16,199.12a9.46,9.46,0,0,1,5.92-3.08c4-.59,2.76-2.93.91-3.35C590.43,192.12,587,194.37,586.16,199.12Z" transform="translate(-24.75 -24.89)" fill="#c64262"/><path d="M615.83,198a12.22,12.22,0,0,0-9.17-3.95c-6,0-2.41-4.59,1.92-3.5A9.12,9.12,0,0,1,615.83,198Z" transform="translate(-24.75 -24.89)" fill="#c64262"/><path d="M635.15,217.41l2.15-16.34s4-7.9,10.78-4.24S649.29,219.82,635.15,217.41Z" transform="translate(-24.75 -24.89)" fill="#b25275"/><path d="M648.08,196.83c-6.83-3.66-10.78,4.24-10.78,4.24l-.38,2.91c3.07-1.58,9.46-3.69,13.4,3.19C651.64,202.81,651,198.4,648.08,196.83Z" transform="translate(-24.75 -24.89)" fill="#d17894"/><path d="M582.62,206.12a11.21,11.21,0,0,0-1.56.12,39.32,39.32,0,0,0,3.37,15c4.13-.71,7.23-3.79,7.23-7.47C591.66,209.54,587.61,206.12,582.62,206.12Z" transform="translate(-24.75 -24.89)" fill="#c4608d"/><path d="M605.5,253.5s-16.38-1.5-20.63,4.5S582,276.88,582,276.88s-7,12.5-5.5,20.37,7.87,17.63,7.87,17.63-7.25,12.12-11.87,21.5a155.81,155.81,0,0,0-8,20.5S578.37,370.5,606.37,373a145.41,145.41,0,0,0,50.13-4.25s-2-21.62,0-29.25,11-37.62,12.5-49-2-32.75-12.12-38c-10.35-5.37-16.39-1.87-24.51-.37S611.73,253.64,605.5,253.5Z" transform="translate(-24.75 -24.89)" fill="#ff9640"/><path d="M656.88,252.5s7.45,15.67,6.37,31-11.42,36.83-13.25,47-2.53,40.36-2.53,40.36" transform="translate(-24.75 -24.89)" fill="none" stroke="#fff6ec" stroke-linecap="round" stroke-linejoin="round" stroke-dasharray="5"/><path d="M589.5,314s8.83-6,24.25-1" transform="translate(-24.75 -24.89)" fill="none" stroke="#fff6ec" stroke-linecap="round" stroke-linejoin="round"/><path d="M598.66,314A34.91,34.91,0,0,1,617,321.17" transform="translate(-24.75 -24.89)" fill="none" stroke="#fff6ec" stroke-linecap="round" stroke-linejoin="round"/><path d="M602.33,305.5s-14.22-13.35-12.05-20.19,9.88-4.81,12.05,3.69c0,0,4.5-8.33,11.42-5.83S615.83,298,602.33,305.5Z" transform="translate(-24.75 -24.89)" fill="#fff6ec"/><path d="M605.94,250.28s1.54,3.49,8.54,3.24,17.07-6,17.07-6,1.2-.92,1.78,0,1,5.33.54,6-12.29,9-20.12,8-9.25-4.58-9.59-6.08-.65-7.72,1.92-7.15Z" transform="translate(-24.75 -24.89)" fill="#fff6ec"/><path d="M666.33,396.14s-.45,9,1.72,10.23,10.73-.32,15.09,1.24,5.6,0,4.66-2.34c0,0,3.12.16,4.67.32s5.22,3,7.47,2.65c1.39-.19-2.49-4.42-5.13-6.59s-17.43-5.51-17.43-5.51S666.36,393.7,666.33,396.14Z" transform="translate(-24.75 -24.89)" fill="#d17894"/><path d="M687.8,405.27c-.71-1.17-2.56-2.32-5.21-2.63a3.89,3.89,0,0,1-3.3-2.64" transform="translate(-24.75 -24.89)" fill="none" stroke="#913a5d" stroke-linecap="round" stroke-linejoin="round"/><path d="M648.33,252.83c9.67-4.08,15.5,4.5,25.17,24.67s13,42.83,13,57.5-.67,55.62-1.67,58.14-6.17,4.86-11.33,5.36-10-.32-10.11-2.79-7-62.76-8.82-68.88-8.41-23-13.07-39.5S638.66,256.92,648.33,252.83Z" transform="translate(-24.75 -24.89)" fill="#fff6ec"/><path d="M663.32,394.4s9.33,4.7,21.84-3.51" transform="translate(-24.75 -24.89)" fill="none" stroke="#ff9640" stroke-linecap="round" stroke-linejoin="round"/><path d="M653.16,251.84s15.5,21.33,22,39.49,8.5,44.5,8.17,61-1.43,40.35-1.43,40.35" transform="translate(-24.75 -24.89)" fill="none" stroke="#ff9640" stroke-linecap="round" stroke-linejoin="round"/><path d="M653.59,369.53s2.41,19-4.43,30-15.89,19-45.69,19.5-79.81-5.67-89-15.83c-7.19-8-3.5-26.95,9-33.64s35.5-10.36,61.16-9.2,61,10.87,61,10.87Z" transform="translate(-24.75 -24.89)" fill="#4582f5"/><path d="M651,370s-.88,41-43.19,48.91" transform="translate(-24.75 -24.89)" fill="none" stroke="#ff9640" stroke-linecap="round" stroke-linejoin="round" stroke-dasharray="5"/><path d="M647.12,387.13s-8.37-7.88-7.87-10.38,1.63-6.79,1.63-6.79" transform="translate(-24.75 -24.89)" fill="none" stroke="#2e6acc" stroke-linecap="round" stroke-linejoin="round"/><path d="M658.5,418.87s31,3.13,39,2.13,7.5-7,1-9.25S684.94,408,681,401.5s-11.18-10.56-16.47-7.09a95.44,95.44,0,0,1-9.08,5.34Z" transform="translate(-24.75 -24.89)" fill="#f2b0b1"/><path d="M698.5,411.75c-1.83-.63-3.71-1.21-5.55-1.85.65,3.18.91,7.46-.91,11.29a45.89,45.89,0,0,0,5.46-.19C705.5,420,705,414,698.5,411.75Z" transform="translate(-24.75 -24.89)" fill="#ff5778"/><path d="M679.14,399c-4.11-4.93-10.09-7.54-14.64-4.55-3.14,2.06-5.73,3.55-7.34,4.42a3.08,3.08,0,0,0,1.09,3.92C662,405.32,676.8,406.6,679.14,399Z" transform="translate(-24.75 -24.89)" fill="#ff5778"/><path d="M536.25,373.56c26.5-8.11,48.5-1.31,70.5,8.44S642,395.5,645.5,395.5s5.5-.5,6.25,2.5,3.5-2.25,5-2.25,2.5,2,3.75,4.75,5,13.56,1.25,18.53S655,422.5,653,421.25s-3.31-3.69-5.53-2.22-3.47.22-6.47-1.28-47.36,5.53-86.06-2.11-43.22-10.17-41-20.9S530.21,375.4,536.25,373.56Z" transform="translate(-24.75 -24.89)" fill="#4582f5"/><path d="M546.51,371.1s37.49,4.15,59,15.15,35.3,13.95,40.27,14.47,4.05,3.53,7,2,5-4.25,8.6,0" transform="translate(-24.75 -24.89)" fill="none" stroke="#ff9640" stroke-linecap="round" stroke-linejoin="round" stroke-dasharray="5"/><path d="M536.25,373.56c26.5-8.11,48.5-1.31,70.5,8.44S642,395.5,645.5,395.5c2.54,0,4.29-.26,5.35.74" transform="translate(-24.75 -24.89)" fill="none" stroke="#2e6acc" stroke-linecap="round" stroke-linejoin="round"/><path d="M654,402.75s2.5,5.75-3,13.5" transform="translate(-24.75 -24.89)" fill="none" stroke="#2e6acc" stroke-linecap="round" stroke-linejoin="round"/><path d="M643.25,398.5A19.37,19.37,0,0,1,651,411.75" transform="translate(-24.75 -24.89)" fill="none" stroke="#2e6acc" stroke-linecap="round" stroke-linejoin="round"/><path d="M409.79,307.64a8.65,8.65,0,0,1,.5-.83,23.74,23.74,0,0,1,1.5-2.05c.33-.42.73-.82,1.13-1.27s.85-.9,1.34-1.34l1.55-1.3c.52-.45,1.1-.85,1.67-1.26l1.69-1.23c.55-.4,1.15-.73,1.7-1.08l1.61-1a13.52,13.52,0,0,1,1.48-.79l3.12-1.55,0,.1-3,1.75a15.51,15.51,0,0,0-1.42.89l-1.53,1.07c-.52.38-1.09.73-1.62,1.16l-1.59,1.3a20.26,20.26,0,0,0-1.55,1.35L415,302.92c-.5.4-.92.87-1.36,1.26s-.87.76-1.23,1.13-.72.67-1,1-.56.56-.79.76l-.69.67Z" transform="translate(-24.75 -24.89)" fill="#f2b0b1"/><path d="M410.81,310.46a7.14,7.14,0,0,1,.86-.55,24.18,24.18,0,0,1,2.39-1.22c.5-.25,1.07-.44,1.67-.67s1.22-.45,1.89-.64l2.08-.5a19.76,19.76,0,0,1,2.17-.41l2.18-.36c.71-.14,1.43-.14,2.12-.22l2-.15a13.51,13.51,0,0,1,1.78,0l3.68.08v.1l-3.66.17a12.63,12.63,0,0,0-1.76.16l-1.95.26c-.68.11-1.38.14-2.08.32l-2.13.46a20.84,20.84,0,0,0-2.1.54l-2,.59c-.67.15-1.28.4-1.89.56s-1.17.32-1.69.5-1,.3-1.42.44l-1.1.35-1,.31Z" transform="translate(-24.75 -24.89)" fill="#f2b0b1"/><path d="M372.08,298.75s-5.08-14.41-7.08-14-5.09,28.14,1.71,32.11S372.08,298.75,372.08,298.75Z" transform="translate(-24.75 -24.89)" fill="#f2b0b1"/><path d="M418.47,351.33s1.19,32.84,2,32.84,4.32-1.82,6-.83-.36,8.83-4,9.49-7.65,0-9.15,0-5-16.2-6.33-20.6S414.94,343,418.47,351.33Z" transform="translate(-24.75 -24.89)" fill="#f4e4d4"/><path d="M423.66,385.17s3,.25,1.53,5.63" transform="translate(-24.75 -24.89)" fill="none" stroke="#e2b8aa" stroke-linecap="round" stroke-linejoin="round"/><path d="M379.66,293.67c-8.33,3.32-14,11.66-13.5,19.66s5.67,14.67,11.17,18.17c0,0-4.67,7.83-19,19.17S339.66,376.83,342.66,387s7.84,16.83,17,16.83h48c4.34,0,6.84-8,4.17-9.5s-7.83,0-7.83,0a26.06,26.06,0,0,0-1.34-8s14.34-10.66,18-35.5A70.5,70.5,0,0,1,439,344.17s6.75-18.84,12.81-22.84,11.49-3.83,12.1-6.16-2.35-10.8-14.27-6c-11.61,4.66-13.83,13-19.47,17S410.83,323,410.83,323a28.18,28.18,0,0,0,2.5-9.83c.17-5-.33-9.17-4.17-9.84S399.33,285.83,379.66,293.67Z" transform="translate(-24.75 -24.89)" fill="#fff6ec"/><path d="M369.16,312.17c-1.26-1.27,2.5-6.34,9.34-8.5s12.33-1.84,12.33,0-7.83,4.33-12.33,6S370.5,313.5,369.16,312.17Z" transform="translate(-24.75 -24.89)" fill="#f2b0b1"/><path d="M369.83,304.35c-1.76,1.13,3.42-7.06,8.06-8.86s10.53-.72,9.77,1.19-6.5,1.67-10,3.09A42.3,42.3,0,0,0,369.83,304.35Z" transform="translate(-24.75 -24.89)" fill="#f2b0b1"/><path d="M373.33,318.5c-1.44-.54.59-3.67,6.55-5.92s9.28-.92,9.62,0S377.34,320,373.33,318.5Z" transform="translate(-24.75 -24.89)" fill="#f2b0b1"/><path d="M369.48,368.5s8.82-6.83,18.25-2.5,13.73,15.46,14.93,20.33" transform="translate(-24.75 -24.89)" fill="none" stroke="#e2b8aa" stroke-linecap="round" stroke-linejoin="round"/><path d="M409,396.17a7.41,7.41,0,0,1-1.34,7.66" transform="translate(-24.75 -24.89)" fill="none" stroke="#e2b8aa" stroke-linecap="round" stroke-linejoin="round"/><path d="M454.25,310.5s2.89-3.39,6.48-1.53" transform="translate(-24.75 -24.89)" fill="none" stroke="#e2b8aa" stroke-linecap="round" stroke-linejoin="round"/><path d="M459,312.58s3.43-2.07,4.88,1.09" transform="translate(-24.75 -24.89)" fill="none" stroke="#e2b8aa" stroke-linecap="round" stroke-linejoin="round"/><path d="M362.54,347.21c14.87-7.45,32,2.62,32.5-.88s-11-9-15.16-9.83a14,14,0,0,0-6.61.26,104.59,104.59,0,0,1-10.75,10.46Z" transform="translate(-24.75 -24.89)" fill="#f2b0b1"/><path d="M380.66,353.89c10,2.13,4.84-2.39-4-4.58s-17.11.3-22,4.57a46.17,46.17,0,0,0-7.09,8.53C365.38,348,377.29,353.17,380.66,353.89Z" transform="translate(-24.75 -24.89)" fill="#f2b0b1"/><path d="M384.83,295.17c-.65-.85,1.33-8.2,3.67-12.52s5.16-8.73,6.66-8.77,13.84,16.29,9.17,26.95c0,0-6,2.34-10.5,1.17S386,296.67,384.83,295.17Z" transform="translate(-24.75 -24.89)" fill="#f2b0b1"/><path d="M410.83,323c-3.58,4-15.17,15-33.5,8.5a23.3,23.3,0,0,0,19.67,6c12-2,16-13.67,16-13.67S412.57,321.08,410.83,323Z" transform="translate(-24.75 -24.89)" fill="#4582f5"/><path d="M340.36,405.16a33.09,33.09,0,0,1-18-5.63c-14.52-9.31-16.4-26.14-5.16-46.15,2.47-4.41,3.2-9.09,2-12.83a8.66,8.66,0,0,0-4.72-5.43,8.55,8.55,0,0,0-9,1.49c-1.39,1.27-2.77,3.51-1.49,7a4,4,0,1,1-7.51,2.74,14,14,0,0,1,3.6-15.66,16.6,16.6,0,0,1,17.85-2.83,16.81,16.81,0,0,1,8.94,10.23c1.88,5.85.91,12.84-2.65,19.18-6.38,11.37-11.13,26.76,2.51,35.51,14.79,9.49,25.45.71,25.9.33a4,4,0,0,1,5.23,6.05A27.42,27.42,0,0,1,340.36,405.16Z" transform="translate(-24.75 -24.89)" fill="#fff6ec"/><path d="M239.05,387.25s10.28,15.46,9.77,19.69-2.66,15.64-3.34,18.93-3.31-1-3.37-5.1-1.06-12.44-2.06-12.52,1.75,6.41-1,8.79-2.25-2.38-4-7.13-3.83-12.48-3.92-15.36S239.05,387.25,239.05,387.25Z" transform="translate(-24.75 -24.89)" fill="#ffb0ac"/><path d="M220.6,242.24c9,3.73,9.28,20.5,7.2,33.84s-10,42.2-9.54,51,21.25,49,21.85,55.49-7.06,13.1-14.9,8-36.69-50-37.2-59.71,3.7-31.75,7-50.42S204.15,235.4,220.6,242.24Z" transform="translate(-24.75 -24.89)" fill="#5f98f2"/><path d="M231.13,397.77c-2.29,1-2.58-2.82-5.92-5.39-6.19-4.78-8.21-6.49-5.51-11.66s10.64-10.65,14.7-10.78,3.84,3.22,5.74,6.47,5.51,7.31,3.34,10.84A30.53,30.53,0,0,1,231.13,397.77Z" transform="translate(-24.75 -24.89)" fill="#4582f5"/><circle cx="199.06" cy="359.27" r="1.37" fill="#fff"/><circle cx="203.05" cy="365.66" r="1.37" fill="#fff"/><path d="M194.71,327.09s11.59-6.35,21-.85" transform="translate(-24.75 -24.89)" fill="none" stroke="#4582f5" stroke-linecap="round" stroke-linejoin="round"/><path d="M201.11,322.84s4-5.41,12.3-2.42" transform="translate(-24.75 -24.89)" fill="none" stroke="#4582f5" stroke-linecap="round" stroke-linejoin="round"/><path d="M208.31,244.08s-11.93,72.21-12.26,75.44,3.09,2.26,2.54,3.32-4.88,2.25-3.54,4.08l1.33,1.82a6,6,0,0,1,2.5,3.55c.31,2.12,7.13,27.51,31.21,55" transform="translate(-24.75 -24.89)" fill="none" stroke="#4582f5" stroke-linecap="round" stroke-linejoin="round" stroke-dasharray="5"/><path d="M133.39,409.77s-24.67-5.34-29.67-6.84-4-7.16,2.34-8.83a19.72,19.72,0,0,1,10.91,0s7.75-6.33,12.75-6.5,9,7.83,10.34,9.83S133.39,409.77,133.39,409.77Z" transform="translate(-24.75 -24.89)" fill="#f2b0b1"/><path d="M117,394.1s-3.25,4.16-7.58,4.58" transform="translate(-24.75 -24.89)" fill="none" stroke="#ffe4e3" stroke-linecap="round" stroke-linejoin="round"/><path d="M154.06,359.77c.89,13.24,22.66,38,22.66,38s-21.08-2-23.21-2-2.79-4.67-5.12-4.34-4,3-6.33,3.67-2.67-3-5.67-2-11.33,9.33-8.33,14,6,8.33,7,6.33,2.33-1.55,3.66.56,3,.78,5.34,1.44,62.49,28.67,75.75,30,26.25-3,28.25-10.33-3.18-16.19-7-27.33c-7.68-22.36-40-67.53-40-67.53C193.18,331.33,152.74,340.12,154.06,359.77Z" transform="translate(-24.75 -24.89)" fill="#171c5b"/><path d="M160.72,359.77c3,7.66,42.54,59,45.27,61.66s6.23,8.67,5.48,10.34-4.1-5.86-6.26-4.76.51,3.91-.82,5-2.67-4.24-5-3.58-53.63-18-55.15-17.33-4.89-4-5.2-2.67-3.65,3-4.32,0-6.22,2.45-6.66-1.33" transform="translate(-24.75 -24.89)" fill="none" stroke="#020264" stroke-linecap="round" stroke-linejoin="round" stroke-dasharray="5"/><path d="M96.38,426.41s-24.67-5.33-29.67-6.83-4-7.17,2.34-8.84a19.83,19.83,0,0,1,10.91,0s7.75-6.33,12.75-6.5,9,7.84,10.34,9.84S96.38,426.41,96.38,426.41Z" transform="translate(-24.75 -24.89)" fill="#f2b0b1"/><path d="M80,410.74s-3.25,4.17-7.58,4.59" transform="translate(-24.75 -24.89)" fill="none" stroke="#ffe4e3" stroke-linecap="round" stroke-linejoin="round"/><path d="M122.38,332.74s-8,30.67-5.33,43.67,22.66,38,22.66,38-21.08-2-23.21-2-2.79-4.67-5.12-4.33-4,3-6.33,3.66-2.67-3-5.67-2-11.33,9.34-8.33,14,6,8.34,7,6.34,2.33-1.55,3.66.56,3,.77,5.34,1.44,62.49,28.66,75.75,30,26.25-3,28.25-10.34-2-16.66-7-27.33-26.92-52.62-26.92-52.62l23.92-31.55-12.36-14Z" transform="translate(-24.75 -24.89)" fill="#283681"/><path d="M112.75,414.08a15.46,15.46,0,0,0-11,12.33" transform="translate(-24.75 -24.89)" fill="none" stroke="#020264" stroke-linecap="round" stroke-linejoin="round"/><path d="M100.05,414.08a21.1,21.1,0,0,0,0,11" transform="translate(-24.75 -24.89)" fill="none" stroke="#020264" stroke-linecap="round" stroke-linejoin="round"/><path d="M127,332.29s-6.32,36.45-3.32,44.12,42.54,59,45.27,61.67,6.23,8.66,5.48,10.33-4.1-5.85-6.26-4.76.51,3.91-.82,5-2.67-4.24-5-3.57-53.63-18-55.15-17.34-4.89-4-5.2-2.66-3.65,3-4.32,0-6.22,2.45-6.66-1.34" transform="translate(-24.75 -24.89)" fill="none" stroke="#020264" stroke-linecap="round" stroke-linejoin="round" stroke-dasharray="5"/><path d="M172.38,371.79s-14.33-7.05-30.67-1.71" transform="translate(-24.75 -24.89)" fill="none" stroke="#020264" stroke-linecap="round" stroke-linejoin="round"/><path d="M141.71,376.41a113.93,113.93,0,0,1,18.88-4.62" transform="translate(-24.75 -24.89)" fill="none" stroke="#020264" stroke-linecap="round" stroke-linejoin="round"/><path d="M139.71,331s1.67,18.7,0,20.7S123,366.22,123,366.22" transform="translate(-24.75 -24.89)" fill="none" stroke="#020264" stroke-linecap="round" stroke-linejoin="round"/><path d="M169,328.18s10.73,30.9,10.23,34.56a78.31,78.31,0,0,1-2.08,9.05" transform="translate(-24.75 -24.89)" fill="none" stroke="#020264" stroke-linecap="round" stroke-linejoin="round"/><path d="M157.08,329.34s3,18,6.3,20.71,13.75,3.29,13.75,3.29" transform="translate(-24.75 -24.89)" fill="none" stroke="#020264" stroke-linecap="round" stroke-linejoin="round"/><path d="M179.21,234.74c-3.22-3.3-12.83-12.83-25.83-4s-32.5,43.17-34.17,63.5,0,32.5,0,32.5-5.5,24-6.16,28.34a56.64,56.64,0,0,0,0,11.14l12.66-14.48s17.67,8,23.67,12,17.33,12.67,17.33,12.67l10.42-21.83,22.06,11.64s-2.14-19.28-1.48-23.05,1.48-8.76,1.48-8.76-9.48-12-9.81-14.67c0,0,3.17-2,4-3.66s.5-7.17.5-7.17a43.92,43.92,0,0,0,11.83-8.83c8.67-9.67,19.59-26.67,19.5-40.67s-4.24-19-9.54-19.33-15.17,2.21-22.91,2.83S184,239.65,179.21,234.74Z" transform="translate(-24.75 -24.89)" fill="#4582f5"/><path d="M193.88,308.91s-18.67,8.83-38.83,4.5" transform="translate(-24.75 -24.89)" fill="none" stroke="#5f98f2" stroke-linecap="round" stroke-linejoin="round"/><path d="M143.88,300.74a71.79,71.79,0,0,0,26.39,10.34" transform="translate(-24.75 -24.89)" fill="none" stroke="#5f98f2" stroke-linecap="round" stroke-linejoin="round"/><path d="M189.38,319.74a49.36,49.36,0,0,1-17,6.5" transform="translate(-24.75 -24.89)" fill="none" stroke="#5f98f2" stroke-linecap="round" stroke-linejoin="round"/><path d="M191.38,243a49.11,49.11,0,0,1,2.5,26.77c-2.83,14.84-9.51,38.29-17.67,44.15,0,0,1.84,5.52,1.17,7.19s-6.5,3.16-6.5,5.16,4.25,18.34,6.25,28.34" transform="translate(-24.75 -24.89)" fill="none" stroke="#5f98f2" stroke-linecap="round" stroke-linejoin="round"/><path d="M195.05,274a2.09,2.09,0,1,1-2.09-2.08A2.1,2.1,0,0,1,195.05,274Z" transform="translate(-24.75 -24.89)" fill="#fff"/><path d="M188.69,296.77a2.09,2.09,0,1,1-2.09-2.09A2.09,2.09,0,0,1,188.69,296.77Z" transform="translate(-24.75 -24.89)" fill="#fff"/><path d="M179.21,317.66a2.08,2.08,0,1,1-2.08-2.08A2.08,2.08,0,0,1,179.21,317.66Z" transform="translate(-24.75 -24.89)" fill="#fff"/><path d="M175.23,338.16a2.08,2.08,0,1,1-2.08-2.08A2.08,2.08,0,0,1,175.23,338.16Z" transform="translate(-24.75 -24.89)" fill="#fff"/><path d="M172.38,230.16s-20-1.66-35.69,25.3S123.54,301.57,123.63,313s2.08,38.75,2.08,38.75" transform="translate(-24.75 -24.89)" fill="none" stroke="#5f98f2" stroke-linecap="round" stroke-linejoin="round" stroke-dasharray="5"/><path d="M112.08,215.88c-2.27,2.4-8.19,34.53-7.78,56,.36,19.13,5.51,33.08,15.83,31.5s31.92-18.75,41.67-35.25,9.74-34.74,3.5-37.5-16.42-1.48-32.49,18.27c0,0-2.5-30.5-4.75-33.05S117,210.68,112.08,215.88Z" transform="translate(-24.75 -24.89)" fill="#5f98f2"/><path d="M132.81,248.93s3.57,19.73-1.1,33.73" transform="translate(-24.75 -24.89)" fill="none" stroke="#4582f5" stroke-linecap="round" stroke-linejoin="round"/><path d="M115.12,213.21s-12.7,42-4.07,86.71" transform="translate(-24.75 -24.89)" fill="none" stroke="#4582f5" stroke-linecap="round" stroke-linejoin="round" stroke-dasharray="5"/><path d="M110,209.08c-2,.62.13,5.46-1.24,9.58s-1.78,8-1,9,9.75,4.38,15.25,2.5,8.5-5,7.87-8.25,1.65-11.59-.24-12.61S116.9,206.87,110,209.08Z" transform="translate(-24.75 -24.89)" fill="#4582f5"/><circle cx="87.67" cy="199.52" r="1.37" fill="#fff"/><circle cx="88" cy="193.41" r="1.37" fill="#fff"/><path d="M129.51,198s.88-4.39,4.69-5.47,6.16.1,6,1.37-3.51,2.9-5.33,6.83-3,9-6.61,10.49-4.59,1.46-7.14,3.32-6.29,2.37-9-2-5.32-18.88-5-21.29,16.53-5.77,16.53-5.77.4-2.45,2.26-2.06,6.75,4.63,4,8.82Z" transform="translate(-24.75 -24.89)" fill="#dd7292"/><circle cx="120.13" cy="197.97" r="11.33" transform="translate(-119.33 259.83) rotate(-80.75)" fill="#02ccc0"/><path d="M130.56,193.52a11.35,11.35,0,0,0-6.8-6.28,21.5,21.5,0,0,0-6.92,3.64,23.22,23.22,0,0,0-7.58,10.26,11.36,11.36,0,0,0,5.44,6.78,17.15,17.15,0,0,1,6.42-11.49A12.74,12.74,0,0,1,130.56,193.52Z" transform="translate(-24.75 -24.89)" fill="#ff9640"/><path d="M117.28,185s2-2.52,3.81-2.22,6.77,4.38,6.47,6.59-5.88,0-5.88,0,1.48,2.6.54,3.58-3.38,1.17-7.1-1.76c0,0,1.47,2.39,0,4s-6.55-1.63-7.72-3.42A2.46,2.46,0,0,1,110,188s.46-2.64,2-3.52S117.28,185,117.28,185Z" transform="translate(-24.75 -24.89)" fill="#ffb0ac"/><path d="M117.28,185a9.19,9.19,0,0,1,4.4,4.37" transform="translate(-24.75 -24.89)" fill="none" stroke="#c14f6d" stroke-linecap="round" stroke-linejoin="round"/><path d="M110,188a12,12,0,0,1,5.08,3.23" transform="translate(-24.75 -24.89)" fill="none" stroke="#c14f6d" stroke-linecap="round" stroke-linejoin="round"/><path d="M187,221.93s.57,5.84-7.1,12.34c0,0,2.83,14.34,10.83,15.67s11.07-7.17,11.07-7.17a32.33,32.33,0,0,1,5.24-11.25Z" transform="translate(-24.75 -24.89)" fill="#ffb0ac"/><path d="M186.32,225.75c2.78,5,7.48,12.22,12.23,13.16a7.93,7.93,0,0,0,4.84-.95,45.23,45.23,0,0,1,3.68-6.44l-20-9.59A14.84,14.84,0,0,1,186.32,225.75Z" transform="translate(-24.75 -24.89)" fill="#dd7292"/><path d="M208.66,167.92c17.37,2.59,27,15.87,24.59,36.63s-16.92,28.6-31.57,26.69S178,215.36,179.36,195.48,195.75,166,208.66,167.92Z" transform="translate(-24.75 -24.89)" fill="#ffb0ac"/><path d="M179.26,197.24s6.75-.89,11.53-5.42,7.3-15,7.3-15,12.52,14.65,27.06,16.39,16.41-3.31,16.41-3.31S235.69,187,235,178.66,226.1,162,211.62,160.42s-20.82,2.25-23.14,8.71c0,0-9.11-2.62-12.78,5.23s-.53,22.88-.53,22.88Z" transform="translate(-24.75 -24.89)" fill="#ff9640"/><path d="M194.88,163.74s7.1-9.07,25-3.67c22.1,6.69,16,26.42,23.84,27.69" transform="translate(-24.75 -24.89)" fill="none" stroke="#ff9640" stroke-linecap="round" stroke-linejoin="round"/><path d="M211,160.36s10.89,8.88,13.14,18.3c2.88,12.11,9.53,14.79,9.53,14.79" transform="translate(-24.75 -24.89)" fill="none" stroke="#ce6f2e" stroke-linecap="round" stroke-linejoin="round"/><path d="M223.32,176.9s-.84,12,5.42,16.62" transform="translate(-24.75 -24.89)" fill="none" stroke="#ce6f2e" stroke-linecap="round" stroke-linejoin="round"/><path d="M201.63,189.54a9.9,9.9,0,0,1,6.19-3.23c4.19-.61,2.89-3.07,1-3.5C206.09,182.21,202.51,184.57,201.63,189.54Z" transform="translate(-24.75 -24.89)" fill="#ce6f2e"/><path d="M228.57,191.16a9.92,9.92,0,0,0-6.19-3.22c-4.19-.61-2.89-3.07-.95-3.5C224.11,183.84,227.69,186.19,228.57,191.16Z" transform="translate(-24.75 -24.89)" fill="#ce6f2e"/><path d="M182.09,215.4l-2.83-18.16s-4.8-9.26-11.07-2.35C162.88,200.74,172.2,217.59,182.09,215.4Z" transform="translate(-24.75 -24.89)" fill="#dd7292"/><path d="M179.81,200.79l-.55-3.55s-4.8-9.26-11.07-2.35c-1.92,2.12-1.92,5.69-.67,9.28.88-2,2.17-3.92,4-4.57C173.81,198.77,177.21,199.75,179.81,200.79Z" transform="translate(-24.75 -24.89)" fill="#ffb0ac"/><path d="M206.42,197.24a1.89,1.89,0,1,1-1.83-2.35A2.15,2.15,0,0,1,206.42,197.24Z" transform="translate(-24.75 -24.89)" fill="#00005c"/><path d="M225.15,198.3a1.89,1.89,0,1,1-1.83-2.35A2.15,2.15,0,0,1,225.15,198.3Z" transform="translate(-24.75 -24.89)" fill="#00005c"/><ellipse cx="173.34" cy="183.14" rx="8.74" ry="7.37" fill="#f283ab"/><path d="M217,191.82s-1.57,10.81,0,12.38c0,0,5.93.35,6.28,1.75s-5.58,7.32-5.58,7.32" transform="translate(-24.75 -24.89)" fill="none" stroke="#c14f6d" stroke-linecap="round" stroke-linejoin="round"/><path d="M206.83,215.4s4.27,7.64,13,2.75" transform="translate(-24.75 -24.89)" fill="none" stroke="#c14f6d" stroke-linecap="round" stroke-linejoin="round"/><path d="M233.6,199.63c-.26,0-.51,0-.77,0-4.83,0-8.74,3.3-8.74,7.37,0,3.53,2.94,6.47,6.87,7.2a40,40,0,0,0,2.29-9.62C233.45,202.86,233.56,201.22,233.6,199.63Z" transform="translate(-24.75 -24.89)" fill="#f283ab"/><path d="M183.89,229.36s1.18,8.72,10.25,15.22c0,0,4.22-.44,8.48-5.31,0,0-.74,12.31-1.24,19.64l-7.74-8.36s-6,8.19-7,8.36-9.46-18.22-9.47-22.33C177.12,233.08,183.58,228.46,183.89,229.36Z" transform="translate(-24.75 -24.89)" fill="#5f98f2"/><path d="M198.88,330.83c-1.38-2.39,4.83-5.39,8.17-2.65s9.43,12.56,11.21,18.06,8.12,8.34,13,10.84,9.09,10.05,8,17-13,12.31-18.57,7-13.39-14.17-14.72-17-.87-9.66-1-15.17C204.71,342.07,201.48,335.32,198.88,330.83Z" transform="translate(-24.75 -24.89)" fill="#e5989b"/><path d="M198.88,330.83s4.33-2.58,6.5,0" transform="translate(-24.75 -24.89)" fill="none" stroke="#d1747a" stroke-linecap="round" stroke-linejoin="round"/><path d="M258.8,317.66c6.58,6.07,10,15.42,5.75,22.58s-5.75,9.67-5.75,15.42,5.5,25.62,13.5,31.94,25.75,20.31,26.75,38.81-10,25.5-14.75,27-39.25,0-44.25,0-1-8,0-8.75,6.75,1,6.75,1a51,51,0,0,1,0-9.9s-6.76-5.9-13.76-19c0,0-3.25,10.81-5,11.81s-11.24-2.77-13.2-4.5c-3-2.63-2-9-.3-10s4.5,1.25,4.5,1.25-1.25-28.79,1-41.23,6.08-23.69,5.16-28.44-9.91-12.14-10.41-16.32,2-13.59,5.5-15.26,7.25,3.83,10.75,3.58,6.75-6.67,12-6.58S255.61,314.72,258.8,317.66Z" transform="translate(-24.75 -24.89)" fill="#f2b0b1"/><path d="M246.81,435.77c.34-11.64,5.24-22.36,12.24-23.86s21.25,10.75,21.25,10.75" transform="translate(-24.75 -24.89)" fill="none" stroke="#d1747a" stroke-linecap="round" stroke-linejoin="round"/><path d="M241.8,447.16s-2.25,1.5-1.75,6.25" transform="translate(-24.75 -24.89)" fill="none" stroke="#d1747a" stroke-linecap="round" stroke-linejoin="round"/><path d="M233.05,416.77c-5.25-10.86-7.78-25.24-7.84-32.61" transform="translate(-24.75 -24.89)" fill="none" stroke="#d1747a" stroke-linecap="round" stroke-linejoin="round"/><path d="M216.05,416.77s-2.27.06-2.64,5.1" transform="translate(-24.75 -24.89)" fill="none" stroke="#d1747a" stroke-linecap="round" stroke-linejoin="round"/><path d="M220.3,314.08c-2,1.94.75,3.71,0,5.08a2.45,2.45,0,0,1-3.9.58c-1.12-1.24-.1-3.44,1.27-5.13S221.45,313,220.3,314.08Z" transform="translate(-24.75 -24.89)" fill="#283681"/><path d="M225.21,345.66c2.46,5.77,18.55,20.27,34.32,4.39,0,0,.52.24.27,2.49s-5.25,12-16.25,12.25-19.13-9.13-19.63-12.63S224.69,344.42,225.21,345.66Z" transform="translate(-24.75 -24.89)" fill="#02ccc0"/><path d="M239.17,336.76c-1.81-1.79-6.37-7.35-8.25-9.6s-.62-5.12,4.13-5.12a114.57,114.57,0,0,0,15-1.57c3.75-.56,7.37,3.61,6.75,5.77a67.63,67.63,0,0,1-4.75,10.52c-1.63,2.78-10.75,3.86-12.13,3.48S239.86,337.44,239.17,336.76Z" transform="translate(-24.75 -24.89)" fill="#ff5778"/><path d="M241.05,339s0-1.14-1.88-2.28" transform="translate(-24.75 -24.89)" fill="none" stroke="#dd4368" stroke-linecap="round" stroke-linejoin="round"/><path d="M295.42,437.09a46.68,46.68,0,0,0,15.5-23.5c4-15-3-29.43-3-29.43s18,10.18,15.38,30.8c0,0,4.69-4.5,4.72-10,0,0,4.31,16.51-10.72,27.12C305.42,440.46,295.42,437.09,295.42,437.09Z" transform="translate(-24.75 -24.89)" fill="#e5989b"/></svg>